Leap Year *2010* [BluRay] [1080p] [ENG, POL, multisub]

General information:
Country: USA, Ireland 
Release: 6 January 2010
Genre: Comedy, Romance 
Director: Anand Tucker
Screenplay: Deborah Kaplan, Harry Elfont
Original Music: Randy Edelman 
Cinematography by: Newton Thomas Sigel 
Duration: 1h 40mn
Language: English, Polish
Subtitles: English, Polish, Czech, Magyar, Dutch, Portuguese, Romanian, Serbian, Slovenian, Spanish, Turkish 
Rating: 7.0/10 - 4634 votes 

Cast:
Amy Adams  ...  Anna Brady  
Matthew Goode  ...  Declan  
Adam Scott  ...  Jeremy  
John Lithgow  ...  Jack Brady  
Noel O'Donovan  ...  Seamus  
Tony Rohr  ...  Frank  
Pat Laffan  ...  Donal  
Alan Devlin  ...  Joe  
Ian McElhinney  ...  Priest  
Dominique McElligott  ...  Bride  
Mark O'Regan  ...  Captain  
Maggie McCarthy  ...  Eileen  
Peter O'Meara  ...  Ron  
Macdara Ó Fatharta  ...  Father Malone  
Kaitlin Olson  ...  Libby  

Plot:
A woman who has an elaborate scheme to propose to her boyfriend on Leap Day, an Irish tradition which occurs every time the date February 29 rolls around, faces a major setback when bad weather threatens to derail her planned trip to Dublin. With the help of an innkeeper, however, her cross-country odyssey just might result in her getting engaged. 

Specifications:
General
Format                           : Matroska
Overall bit rate                 : 11.8 Mbps

Video
Format                           : AVC
Format/Info                      : Advanced Video Codec
Format profile                   : High@L4.1
Format settings, CABAC           : Yes
Format settings, ReFrames        : 5 frames
Muxing mode                      : Container profile=Unknown@4.1
Codec ID                         : V_MPEG4/ISO/AVC
Bit rate                         : 9 813 Kbps
Width                            : 1 920 pixels
Height                           : 800 pixels
Display aspect ratio             : 2.40:1
Frame rate                       : 23.976 fps

Audio 1
Format                           : DTS
Format/Info                      : Digital Theater Systems
Codec ID                         : A_DTS
Bit rate mode                    : Constant
Bit rate                         : 1 510 Kbps
Channel(s)                       : 6 channels
Channel positions                : Front: L C R, Side: L R, LFE
Sampling rate                    : 48.0 KHz
Bit depth                        : 24 bits
Stream size                      : 1.06 GiB (13%)
Title                            : English

Audio 2
Format                           : AC-3
Format/Info                      : Audio Coding 3
Mode extension                   : CM (complete main)
Codec ID                         : A_AC3
Bit rate mode                    : Constant
Bit rate                         : 448 Kbps
Channel(s)                       : 6 channels
Channel positions                : Front: L C R, Side: L R, LFE
Sampling rate                    : 48.0 KHz
Stream size                      : 321 MiB (4%)
Title                            : Polish
Language                         : Polish

Text 
Format                           : UTF-8
Codec ID                         : S_TEXT/UTF8
Codec ID/Info                    : UTF-8 Plain Text


Text
Format                           : PGS
Codec ID                         : S_HDMV/PGS
Codec ID/Info                    : The same subtitle format used on BDs/HD-DVDs
